Coordinates
version=1
nRows=8
nColumns=60
inDegrees=yes

Units are S.I. units (second, meters, Newtons, ...)
If the header above contains a line with 'inDegrees', this indicates whether rotational values are in degrees (yes) or radians (no).

endheader
time	pelvis_tilt	pelvis_list	pelvis_rotation	pelvis_tx	pelvis_ty	pelvis_tz	hip_flexion_r	hip_adduction_r	hip_rotation_r	knee_angle_r_beta	knee_angle_r	ankle_angle_r	subtalar_angle_r	mtp_angle_r	hip_flexion_l	hip_adduction_l	hip_rotation_l	knee_angle_l_beta	knee_angle_l	ankle_angle_l	subtalar_angle_l	mtp_angle_l	L5_S1_Flex_Ext	L5_S1_Lat_Bending	L5_S1_axial_rotation	L4_L5_Flex_Ext	L4_L5_Lat_Bending	L4_L5_axial_rotation	L3_L4_Flex_Ext	L3_L4_Lat_Bending	L3_L4_axial_rotation	L2_L3_Flex_Ext	L2_L3_Lat_Bending	L2_L3_axial_rotation	L1_L2_Flex_Ext	L1_L2_Lat_Bending	L1_L2_axial_rotation	L1_T12_Flex_Ext	L1_T12_Lat_Bending	L1_T12_axial_rotation	Abs_r3	Abs_r2	Abs_r1	Abs_t1	Abs_t2	arm_flex_r	arm_add_r	arm_rot_r	elbow_flex_r	pro_sup_r	wrist_flex_r	wrist_dev_r	arm_flex_l	arm_add_l	arm_rot_l	elbow_flex_l	pro_sup_l	wrist_flex_l	wrist_dev_l
      7.77000000	      0.20223400	      6.19916728	     93.05245345	      0.39160568	      0.93509933	      0.32947769	      6.89220102	     -5.11493261	     -0.81234650	      0.28610720	    -16.39273527	      6.55546584	      0.00000000	      0.00000000	      8.03425675	     -4.97590228	      0.25812954	      0.28637985	    -16.40835672	      7.90664679	      0.00000000	      0.00000000	     -8.21205242	      0.13499400	     -0.20966762	    -15.25060254	      0.17954202	     -0.22277184	    -13.49158092	      0.32822441	     -0.22277184	     -9.38555471	      0.32822441	     -0.18345916	     -7.62571187	      0.27527976	     -0.17035494	     -4.69236675	      0.20910571	     -0.15725071	    -58.65786921	      1.52707912	     -1.16610838	      0.00000000	      0.00000000	     13.59537273	    -27.80583811	      1.17089035	     95.81192789	     75.62480788	     -2.11387637	     16.97860182	     17.12361481	    -25.61667971	      7.18856004	     92.87734904	     72.19479265	      0.87985096	     12.41169407
      7.78000000	      0.21372414	      5.91593806	     93.02514118	      0.39163330	      0.93437800	      0.33207382	      7.37388917	     -5.13200806	     -0.78175275	      0.28502181	    -16.33054680	      6.55905838	      0.00000000	      0.00000000	      8.49892237	     -4.96305142	      0.29778555	      0.28543701	    -16.35433596	      7.90120747	      0.00000000	      0.00000000	     -8.32883321	      0.13679550	     -0.20318291	    -15.46747616	      0.18193801	     -0.21588184	    -13.68344009	      0.33260457	     -0.21588184	     -9.51902348	      0.33260457	     -0.17778504	     -7.73415452	      0.27895338	     -0.16508611	     -4.75909530	      0.21189623	     -0.15238718	    -59.49202276	      1.54745803	     -1.13004236	      0.00000000	      0.00000000	     14.03564680	    -27.78153568	      1.13090822	     95.67292481	     75.63082703	     -2.10634300	     16.94554335	     17.59457360	    -25.62485985	      7.10567743	     92.71574285	     72.19711314	      0.87534088	     12.38352522
      7.79000000	      0.25850011	      5.54267025	     92.95056410	      0.39169131	      0.93354697	      0.33488972	      8.18278945	     -5.10070239	     -0.54566152	      0.29158402	    -16.70653367	      6.26538305	      0.00000000	      0.00000000	      9.27952798	     -4.97583496	      0.39083962	      0.29211724	    -16.73708506	      7.56423466	      0.00000000	      0.00000000	     -8.38646918	      0.13909111	     -0.19048308	    -15.57451192	      0.18499118	     -0.20238827	    -13.77813022	      0.33818613	     -0.20238827	     -9.58489563	      0.33818613	     -0.16667269	     -7.78767528	      0.28363459	     -0.15476750	     -4.79202849	      0.21545213	     -0.14286231	    -59.90371073	      1.57342647	     -1.05940972	      0.00000000	      0.00000000	     15.05162939	    -27.75921068	      1.76792997	     94.46772052	     75.79346261	     -1.96717531	     16.49583464	     18.54851842	    -25.64247579	      7.72619847	     91.46481211	     72.29890485	      0.84684072	     12.03258783
      7.80000000	      0.29186007	      5.09505909	     92.88676202	      0.39176055	      0.93254975	      0.33761094	      8.99696603	     -5.08717916	     -0.36720464	      0.29578094	    -16.94699935	      6.16257601	      0.00000000	      0.00000000	     10.06533873	     -4.97723614	      0.45436738	      0.29612638	    -16.96679199	      7.41400956	      0.00000000	      0.00000000	     -8.45576019	      0.14005723	     -0.17848350	    -15.70319224	      0.18627612	     -0.18963871	    -13.89196841	      0.34053515	     -0.18963871	     -9.66408832	      0.34053515	     -0.15617306	     -7.85201891	      0.28560471	     -0.14501784	     -4.83162137	      0.21694865	     -0.13386262	    -60.39864944	      1.58435542	     -0.99267166	      0.00000000	      0.00000000	     15.78605354	    -27.71419882	      2.11129230	     93.57574809	     76.45364722	     -1.29278491	     13.34825473	     19.28847933	    -25.64682779	      8.13279430	     90.55515180	     72.62649857	      0.57811242	      9.42072196
      7.81000000	      0.32213253	      4.87187299	     92.82337141	      0.39183340	      0.93190074	      0.34030457	      9.52702008	     -5.05742505	     -0.17572332	      0.29873695	    -17.11636634	      5.98085155	      0.00000000	      0.00000000	     10.56274878	     -4.99007654	      0.52804652	      0.29870549	    -17.11456414	      7.19547174	      0.00000000	      0.00000000	     -8.57060724	      0.14241245	     -0.16700004	    -15.91647470	      0.18940856	     -0.17743755	    -14.08065063	      0.34626164	     -0.17743755	     -9.79534701	      0.34626164	     -0.14612504	     -7.95866588	      0.29040748	     -0.13568754	     -4.89724498	      0.22059689	     -0.12525003	    -61.21899044	      1.61099816	     -0.92880414	      0.00000000	      0.00000000	     16.69836348	    -27.66194650	      2.36722356	     93.00304785	     76.43008143	     -1.23318319	     13.30939893	     20.17156705	    -25.66201244	      8.37649660	     89.86932080	     72.58069400	      0.61929756	      9.40677182
      7.82000000	      0.34821679	      4.42347155	     92.73532777	      0.39192057	      0.93086518	      0.34298301	     10.32732396	     -5.05462977	     -0.06009677	      0.30207158	    -17.30742685	      5.82941841	      0.00000000	      0.00000000	     11.31180193	     -5.00593028	      0.42827375	      0.30138837	    -17.26828163	      6.98617784	      0.00000000	      0.00000000	     -8.62960386	      0.14168835	     -0.15129680	    -16.02603733	      0.18844551	     -0.16075285	    -14.17757618	      0.34450106	     -0.16075285	     -9.86277425	      0.34450106	     -0.13238470	     -8.01345015	      0.28893089	     -0.12292865	     -4.93095565	      0.21947526	     -0.11347260	    -61.64039742	      1.60280699	     -0.84146739	      0.00000000	      0.00000000	     17.73430193	    -27.73684698	      2.97531897	     92.00047653	     76.42602607	     -1.10449548	     13.11353012	     21.25757596	    -25.77736481	      9.02452013	     88.73944010	     72.50073964	      0.76451323	      9.31123035
      7.83000000	      0.36756693	      4.05229699	     92.65308282	      0.39199331	      0.92991558	      0.34567082	     11.07054629	     -5.04753110	      0.09673699	      0.30642107	    -17.55663388	      5.69203416	      0.00000000	      0.00000000	     11.99051296	     -5.00822868	      0.42517398	      0.30469358	    -17.45765619	      6.80510750	      0.00000000	      0.00000000	     -8.71142463	      0.14287976	     -0.13386406	    -16.17798669	      0.19003008	     -0.14223056	    -14.31199953	      0.34739785	     -0.14223056	     -9.95628721	      0.34739785	     -0.11713105	     -8.08942892	      0.29136041	     -0.10876455	     -4.97770804	      0.22132075	     -0.10039805	    -62.22483502	      1.61628441	     -0.74451174	      0.00000000	      0.00000000	     18.81110827	    -27.72838758	      3.43513346	     91.16975869	     76.45332964	     -0.98634940	     12.82629468	     22.36882816	    -25.81537159	      9.53699820	     87.75590948	     72.42968125	      0.96293456	      9.17309790
      7.84000000	      0.38194228	      3.67700048	     92.57898366	      0.39210971	      0.92894501	      0.34835725	     11.81743654	     -5.03965580	      0.24827115	      0.31088380	    -17.81232988	      5.56844850	      0.00000000	      0.00000000	     12.67042947	     -5.00968864	      0.43639678	      0.30779664	    -17.63544848	      6.65431725	      0.00000000	      0.00000000	     -8.79061186	      0.14263510	     -0.11918168	    -16.32504528	      0.18970469	     -0.12663053	    -14.44209622	      0.34680299	     -0.12663053	    -10.04679029	      0.34680299	     -0.10428397	     -8.16296217	      0.29086150	     -0.09683511	     -5.02295561	      0.22094177	     -0.08938626	    -62.79046142	      1.61351680	     -0.66285275	      0.00000000	      0.00000000	     19.94269214	    -27.75695198	      3.93572856	     90.27605750	     76.50371453	     -0.85332298	     12.45124904	     23.57056851	    -25.89854814	     10.10050917	     86.68784778	     72.34556541	      1.25503496	      9.01379979
